<svg width="22" height="21" viewBox="0 0 22 21" fill="none" xmlns="http://www.w3.org/2000/svg">
<path id="Vector" d="M19.7912 3.09133C19.3025 2.58683 18.7222 2.18663 18.0836 1.91358C17.445 1.64054 16.7605 1.5 16.0692 1.5C15.378 1.5 14.6935 1.64054 14.0548 1.91358C13.4162 2.18663 12.836 2.58683 12.3473 3.09133L11.3331 4.13785L10.3189 3.09133C9.33177 2.07276 7.99295 1.50053 6.59695 1.50053C5.20096 1.50053 3.86214 2.07276 2.87502 3.09133C1.8879 4.1099 1.33334 5.49139 1.33334 6.93187C1.33334 8.37235 1.8879 9.75383 2.87502 10.7724L3.88922 11.8189L11.3331 19.5L18.777 11.8189L19.7912 10.7724C20.2801 10.2681 20.6679 9.66942 20.9325 9.01045C21.1971 8.35148 21.3333 7.64517 21.3333 6.93187C21.3333 6.21857 21.1971 5.51225 20.9325 4.85328C20.6679 4.19431 20.2801 3.59559 19.7912 3.09133ZM19.7912 3.09133V3.09133Z" stroke="#111827" stroke-width="1.25" stroke-linejoin="round"/>
</svg>
